<?xml version="1.0" encoding="utf-8"?>
<!-- Generator: Adobe Illustrator 18.0.0, SVG Export Plug-In . SVG Version: 6.00 Build 0)  -->
<!DOCTYPE svg PUBLIC "-//W3C//DTD SVG 1.1//EN" "http://www.w3.org/Graphics/SVG/1.1/DTD/svg11.dtd">
<svg version="1.1" id="SEARCH" xmlns="http://www.w3.org/2000/svg" xmlns:xlink="http://www.w3.org/1999/xlink" x="0px" y="0px"
	 width="40.6px" height="41.5px" viewBox="0 0 40.6 41.5" enable-background="new 0 0 40.6 41.5" xml:space="preserve">
<path fill="#FFFFFF" d="M34.2,26c-0.1-0.2-0.3-0.3-0.4-0.4c-0.5-0.3-1-0.6-1.6-0.8c0.3-5.4-2.9-10.3-8-12.1v7.6
	c-0.1,0.4-0.4,0.7-0.8,0.8c-0.5,0.1-1.1-0.2-1.2-0.8v-8.1c-1.3-0.2-2.6-0.2-4,0v8.1c-0.1,0.4-0.4,0.7-0.8,0.8
	c-0.5,0.1-1.1-0.2-1.2-0.8v-7.6c-5.1,1.8-8.4,6.7-8,12.1c-0.6,0.2-1.1,0.4-1.6,0.8c-0.2,0.1-0.3,0.3-0.4,0.4S6,26.3,6,26.4
	s0,0.3,0.1,0.4c0.1,0.2,0.2,0.3,0.3,0.4c0.4,0.4,0.9,0.6,1.4,0.8c1.7,0.6,3.4,1,5.2,1.2c2.4,0.3,4.8,0.5,7.2,0.5s4.8-0.2,7.2-0.5
	c1.8-0.2,3.5-0.6,5.2-1.2c0.5-0.2,1-0.5,1.4-0.8c0.1-0.1,0.2-0.3,0.3-0.4s0.1-0.3,0.1-0.4C34.3,26.2,34.3,26.1,34.2,26z"/>
<circle fill="#CF004B" cx="20" cy="21.5" r="20"/>
<g>
	<g>
		<path fill="#FFFFFF" d="M23.4,27c-0.7,0-1.4,0.2-2,0.6l-4.8-3.5c0.2-0.5,0.3-1,0.3-1.5c0-0.6-0.1-1.2-0.3-1.7l4.7-3.4
			c0.6,0.5,1.4,0.7,2.2,0.7c2.2,0,4-1.9,4-4.2s-1.8-4.2-4-4.2s-4,1.9-4,4.2c0,0.3,0,0.7,0.1,1l-5.2,3.7c-0.5-0.2-1-0.3-1.6-0.3
			c-2.2,0-4,1.9-4,4.2s1.8,4.2,4,4.2c0.6,0,1.2-0.2,1.8-0.4l5,3.6c-0.1,0.4-0.2,0.8-0.2,1.3c0,2.3,1.8,4.2,4,4.2s4-1.9,4-4.2
			C27.4,28.9,25.6,27,23.4,27z"/>
	</g>
</g>
</svg>
